<svg xmlns="http://www.w3.org/2000/svg" height="20" viewBox="0 -960 960 960" width="20"><path d="M133.695-144.465v-103.997h692.61v103.997h-71.383v-51.999H515.691v51.999h-71.382v-51.999H205.078v51.999h-71.383ZM268.54-344.462q-13.666 0-22.91-9.244t-9.244-22.91v-423.69q0-13.665 9.244-22.909t22.91-9.244h422.92q13.666 0 22.91 9.244t9.244 22.909v432.613q0 9.873-6.458 16.552-6.457 6.679-16.004 6.679H268.54Zm19.845-51.999h383.23v-384h-383.23v384ZM360-644.923h240v-51.998H360v51.998Zm-71.615 248.462v-384 384Z"/></svg>